 <svg  version="1.0" xmlns="http://www.w3.org/2000/svg"  width="300.000000pt" height="128.000000pt" viewBox="0 0 300.000000 128.000000"  preserveAspectRatio="xMidYMid meet">  <g transform="translate(0.000000,128.000000) scale(0.100000,-0.100000)" fill="#ffffff" stroke="none"> <path d="M1976 991 c10 -18 48 -67 83 -109 93 -112 97 -120 79 -138 -8 -8 -93 -35 -189 -59 -158 -40 -304 -85 -224 -69 16 3 54 10 85 15 160 28 260 52 299 72 94 46 86 68 -85 250 -43 45 -61 59 -48 38z"/> <path d="M1927 934 c6 -36 6 -37 -23 -31 -16 4 -90 10 -164 13 -150 7 -266 -7 -420 -51 -123 -35 -317 -137 -407 -214 -73 -61 -133 -139 -133 -170 0 -9 9 3 21 26 83 168 423 350 732 392 164 23 337 7 426 -38 21 -11 52 -36 70 -56 18 -21 35 -34 38 -31 4 3 -8 23 -26 44 -17 20 -51 63 -76 95 l-44 58 6 -37z"/> <path d="M1535 846 c-124 -20 -231 -53 -340 -104 -175 -81 -256 -142 -343 -257 -40 -52 -32 -46 59 45 80 80 121 113 174 140 39 19 81 41 95 50 155 97 515 151 667 99 34 -11 67 -27 73 -35 14 -16 12 -17 -152 -71 -60 -19 -111 -39 -114 -45 -4 -7 0 -7 12 0 11 5 89 27 174 48 85 21 159 41 163 45 12 9 -54 46 -126 70 -77 26 -234 33 -342 15z"/> </g> </svg> 